#!OML:ASF E:/inclinewalkrobotboard/Project1/Captureday1/Session1/subject1.ASF
:FULLY-SPECIFIED
:DEGREES
201
root 0 0 0 -2.220736672561016 -4.764211228535647 -5.514065703704864
lowerback 10.46149396090028 1.7955907333215189 4.378023055401423
upperback 0.5464049589051698 2.9841654289015036 1.6320987068347423
thorax -5.171012436616538 1.3898481167037189 -1.1643195555686117
lowerneck -16.743143690585903 -3.1822687736024946 -1.7411589618764687
upperneck 19.07362800636655 -4.101976336644259 0.7438856806117142
head 8.805393411148557 -1.9706542617752678 0.021804081118111718
rclavicle -4.3718073822142375E-16 -3.28733414888594E-16
rhumerus -29.46427119079878 -18.360098179575054 -78.1414997700272
rradius 26.337113839094094
rwrist 4.304007053684352
rhand -17.618882204874296 22.763292173004285
rfingers 7.125020000000028
rthumb 8.628529036718241 -7.059229843206008
lclavicle -6.42286448369352E-16 -1.8777639904198772E-16
lhumerus -30.313247341406157 -1.4855997114686907 82.2841879481121
lradius 32.2919550894525
lwrist 5.666482283756688
lhand -25.634737248744003 23.87544737627872
lfingers 7.123998867349953
lthumb 0.8890032021828009 53.51231812778839
rfemur -13.718295982972093 3.283792616059605 25.591471480081545
rtibia 49.74114594359199
rfoot -3.1736364062834195 -4.950047523892863
rtoes 7.281058035492351
lfemur -2.7365981594699313 -3.5409104799645603 -23.37615238663132
ltibia 19.226611063345157
lfoot -15.065138800013203 2.3754019187068742
ltoes -2.69128221413987
202
root 0 0 0 -2.2363173228511206 -4.631365983328825 -5.368755313958728
lowerback 10.46220533546555 1.727758764900169 4.216424999604608
upperback 0.5439635703810897 2.876256045573079 1.6357261058915396
thorax -5.17480167781849 1.3406819317090108 -1.055894161111456
lowerneck -16.762448982479068 -3.167368884814834 -1.7450375297146534
upperneck 19.09899772578789 -4.0751093099687745 0.7232325839645553
head 8.814741345811237 -1.9603950801145162 0.018136859289967777
rclavicle -4.234882369672582E-16 -3.3227633247299967E-16
rhumerus -29.63335529906518 -18.52438068593151 -78.17197464883519
rradius 26.180032953711393
rwrist 4.272264360967689
rhand -17.592291023339484 22.885953830507724
rfingers 7.125020000000029
rthumb 8.653687843317375 -6.938795591666633
lclavicle -6.390896536466048E-16 -1.8915237390420642E-16
lhumerus -30.3453679692988 -1.4527213415092923 82.2871765682117
lradius 32.222741613273435
lwrist 5.658394769430165
lhand -25.65455060358957 23.862190865373883
lfingers 7.124005115965805
lthumb 0.8690212970871922 53.50720311811597
rfemur -16.630815803787357 2.3942457296719644 24.043391005743004
rtibia 54.50966067443958
rfoot -0.8320156924014022 -4.933472100851581
rtoes 8.034418059184897
lfemur -0.6742600745624809 -3.619288914321113 -24.406860217119004
ltibia 18.07840027665399
lfoot -15.871906131003627 2.2648443094451967
ltoes -2.8643726160187275
203
root 0 0 0 -2.2523392490150203 -4.401207433954191 -5.192818304801449
lowerback 10.466192396311088 1.6359415825964914 4.019757718233443
upperback 0.5313869902696795 2.733026449105911 1.6510236497004804
thorax -5.190825171936717 1.2754418941417112 -0.9102274097763478
lowerneck -16.83408629325913 -3.147911304733092 -1.7317763850917975
upperneck 19.16469562550054 -4.038327470514395 0.6693283309988018
head 8.844231251306958 -1.9456749857153894 7.517977875375337E-4
rclavicle -4.073021189531991E-16 -3.3817982737188902E-16
rhumerus -29.861080051521796 -18.743034609348776 -78.21490238936319
rradius 25.967411874824094
rwrist 4.229224412183656
rhand -17.555082668858468 23.05163630309059
rfingers 7.125020000000032
rthumb 8.688004604029988 -6.776274537743948
lclavicle -6.374246070616379E-16 -1.9153178714129188E-16
lhumerus -30.38792014439998 -1.4107200673099136 82.29166584201884
lradius 32.133928743583596
lwrist 5.649993493847571
lhand -25.679728482925967 23.846789508393407
lfingers 7.124011789440542
lthumb 0.8437137552328728 53.49986664650708
rfemur -18.591931797954576 1.936989057562191 22.952034671680018
rtibia 57.074903670484105
rfoot 0.4149038621124408 -5.053962136530988
rtoes 8.260006299130126
lfemur 0.7522701060422037 -3.5770103051300155 -25.065606868310184
ltibia 18.000673066830736
lfoot -16.044751421242182 1.830861823423879
ltoes -3.1066087726334337
204
root 0 0 0 -2.2710499530014854 -4.092794400598592 -4.969546949263462
lowerback 10.471189693965407 1.5163502306026095 3.7701767623475
upperback 0.5136972079639923 2.5471891071058814 1.6731546690139485
thorax -5.212878874493268 1.1907227349231966 -0.7213879626103094
lowerneck -16.933409441371943 -3.122579666464971 -1.7119142682251773
upperneck 19.254499510490724 -3.990880042674879 0.5958116929984056
head 8.885471966784223 -1.926255992913675 -0.023660723433212905
rclavicle -3.913848480695268E-16 -3.452732603345978E-16
rhumerus -30.09991348972749 -18.96898147773053 -78.26115748951777
rradius 25.745257708507168
rwrist 4.183441460810447
rhand -17.5155327093457 23.224771406633455
rfingers 7.125020000000035
rthumb 8.724248003589018 -6.606599693025178
lclavicle -6.366272734414749E-16 -1.9356696039545031E-16
lhumerus -30.427900777283057 -1.3710636349018408 82.29596185592686
lradius 32.050698823172276
lwrist 5.643385065206429
lhand -25.702919740575833 23.83365347782247
lfingers 7.124024735199167
lthumb 0.8205579472820581 53.49342226943323
rfemur -19.6601693091564 1.818537063892581 22.319733505992872
rtibia 57.81286900062562
rfoot 0.7841230590234556 -5.242325344974741
rtoes 8.10447239589379
lfemur 1.8319287930902792 -3.511433126422428 -25.540187644995235
ltibia 18.201701971487655
lfoot -16.039398144925567 1.3769151779760893
ltoes -3.3431454916191883
205
root 0 0 0 -2.304900263116631 -3.5447364888468744 -4.557226931702266
lowerback 10.477358611785965 1.2968906405535274 3.310152396229637
upperback 0.48602747474500596 2.2057874941811857 1.7104930133346326
thorax -5.247812884232063 1.0350100641263267 -0.37657811249266615
lowerneck -17.093333827474005 -3.0745946408093623 -1.6834839137517505
upperneck 19.402428036722867 -3.9035160891375242 0.4723895298625669
head 8.95424530812869 -1.8901022978432807 -0.06306008654910444
rclavicle -3.7533710555845774E-16 -3.5305091944237594E-16
rhumerus -30.331971691374644 -19.185722862977897 -78.30461290062755
rradius 25.534318786089308
rwrist 4.139616778507935
rhand -17.477565404914834 23.390482547592942
rfingers 7.1250200000000365
rthumb 8.758957569695658 -6.444140154499085
lclavicle -6.374001901468074E-16 -1.9749179484615867E-16
lhumerus -30.484736115031346 -1.316135498853626 82.30135862644806
lradius 31.93443429268939
lwrist 5.631425878609917
lhand -25.732754331136306 23.81286184762774
lfingers 7.124044295049991
lthumb 0.7913048338559392 53.48392341831829
rfemur -20.248777459944982 1.9134203965648853 21.947347108635356
rtibia 57.32642732661961
rfoot 0.6019622557538327 -5.499413527664017
rtoes 7.67832467686751
lfemur 2.7207549706353387 -3.4282651196930414 -25.916783952891677
ltibia 18.58548257686366
lfoot -15.90263215493571 0.8827767205643946
ltoes -3.5677542572366283
